# xmcd
#
# Track frame offsets:
#	150
#	21796
#	35296
#	51107
#
# Disc length: 849 seconds
#
# Revision: 0
# Processed by: cddbd v1.5.2PL0 Copyright (c) Steve Scherf et al.
# Submitted via: EZCDAudioConverter 3.1.7.1
#
DISCID=27034f04
DTITLE=Mavis Staples - Your Good Fortune
DYEAR=2015
DGENRE=Soul
TTITLE0=Your Good Fortune
TTITLE1=Fight
TTITLE2=See That My Grave Is Kept Clean
TTITLE3=Wish I Had Answered
EXTD=
EXTT0=
EXTT1=
EXTT2=
EXTT3=
PLAYORDER=
